2015043_C4_04_grf
version=1
nRows=15
nColumns=19
inDegrees=no
endheader
time	ground_force_1_vx	ground_force_1_vy	ground_force_1_vz	ground_force_1_px	ground_force_1_py	ground_force_1_pz	ground_force_1_mx	ground_force_1_my	ground_force_1_mz	ground_force_2_vx	ground_force_2_vy	ground_force_2_vz	ground_force_2_px	ground_force_2_py	ground_force_2_pz	ground_force_2_mx	ground_force_2_my	ground_force_2_mz
      1.74000000	      9.04483628	     76.42149180	      1.01834454	     -0.21168635	      0.00000000	      0.32631306	      0.00000000	      0.40742121	      0.00000000	      0.00000000	      0.00000000	      0.00000000	      0.00000000	      0.00000000	      0.00000000	      0.00000000	      0.00000000	      0.00000000
      1.74100000	      8.25725403	     74.36400652	      1.00437086	     -0.21089617	      0.00000000	      0.32590844	      0.00000000	      0.38623071	      0.00000000	      0.00000000	      0.00000000	      0.00000000	      0.00000000	      0.00000000	      0.00000000	      0.00000000	      0.00000000	      0.00000000
      1.74200000	      7.49387266	     72.36776501	      0.98643242	     -0.21010218	      0.00000000	      0.32550996	     -0.00000000	      0.36503902	     -0.00000000	      0.00000000	      0.00000000	      0.00000000	      0.00000000	      0.00000000	      0.00000000	      0.00000000	      0.00000000	      0.00000000
      1.74300000	      6.76093344	     70.44611126	      0.96363458	     -0.20930549	      0.00000000	      0.32512009	      0.00000000	      0.34389078	      0.00000000	      0.00000000	      0.00000000	      0.00000000	      0.00000000	      0.00000000	      0.00000000	      0.00000000	      0.00000000	      0.00000000
      1.74400000	      6.05242839	     68.58254224	      0.93702693	     -0.20850834	      0.00000000	      0.32473788	      0.00000000	      0.32281342	      0.00000000	      0.00000000	      0.00000000	      0.00000000	      0.00000000	      0.00000000	      0.00000000	      0.00000000	      0.00000000	      0.00000000
      1.74500000	      5.37446933	     66.78953022	      0.90575486	     -0.20771265	      0.00000000	      0.32436636	      0.00000000	      0.30186863	      0.00000000	      0.00000000	      0.00000000	      0.00000000	      0.00000000	      0.00000000	      0.00000000	      0.00000000	      0.00000000	      0.00000000
      1.74600000	      4.72088158	     65.05131721	      0.87082846	     -0.20691983	      0.00000000	      0.32400437	      0.00000000	      0.28106422	      0.00000000	      0.00000000	      0.00000000	      0.00000000	      0.00000000	      0.00000000	      0.00000000	      0.00000000	      0.00000000	      0.00000000
      1.74700000	      4.09758510	     63.37952614	      0.83143340	     -0.20613266	      0.00000000	      0.32365552	      0.00000000	      0.26047895	      0.00000000	      0.00000000	      0.00000000	      0.00000000	      0.00000000	      0.00000000	      0.00000000	      0.00000000	      0.00000000	      0.00000000
      1.74800000	      3.49831814	     61.75924838	      0.78854914	     -0.20535170	      0.00000000	      0.32331800	      0.00000000	      0.24010520	      0.00000000	      0.00000000	      0.00000000	      0.00000000	      0.00000000	      0.00000000	      0.00000000	      0.00000000	      0.00000000	      0.00000000
      1.74900000	      2.92874780	     60.20132266	      0.74141994	     -0.20458059	      0.00000000	      0.32299552	      0.00000000	      0.22004289	      0.00000000	      0.00000000	      0.00000000	      0.00000000	      0.00000000	      0.00000000	      0.00000000	      0.00000000	      0.00000000	      0.00000000
      1.75000000	      2.38260860	     58.69165435	      0.69099222	     -0.20381903	      0.00000000	      0.32268575	      0.00000000	      0.20026800	      0.00000000	      0.00000000	      0.00000000	      0.00000000	      0.00000000	      0.00000000	      0.00000000	      0.00000000	      0.00000000	      0.00000000
      1.75100000	      1.86527689	     57.24027567	      0.63656675	     -0.20307144	      0.00000000	      0.32239269	      0.00000000	      0.18089848	      0.00000000	      0.00000000	      0.00000000	      0.00000000	      0.00000000	      0.00000000	      0.00000000	      0.00000000	      0.00000000	      0.00000000
      1.75200000	      1.37055514	     55.83390221	      0.57904539	     -0.20233658	      0.00000000	      0.32211368	      0.00000000	      0.16188770	      0.00000000	      0.00000000	      0.00000000	      0.00000000	      0.00000000	      0.00000000	      0.00000000	      0.00000000	      0.00000000	      0.00000000
      1.75300000	      0.90348528	     54.48177084	      0.51778604	     -0.20161943	      0.00000000	      0.32185306	      0.00000000	      0.14336477	      0.00000000	      0.00000000	      0.00000000	      0.00000000	      0.00000000	      0.00000000	      0.00000000	      0.00000000	      0.00000000	      0.00000000
      1.75400000	      0.45800643	     53.17142233	      0.45364629	     -0.20091782	      0.00000000	      0.32160776	      0.00000000	      0.12526152	      0.00000000	      0.00000000	      0.00000000	      0.00000000	      0.00000000	      0.00000000	      0.00000000	      0.00000000	      0.00000000	      0.00000000
